<svg width="30" height="31" viewBox="0 0 30 31" fill="none" xmlns="http://www.w3.org/2000/svg">
                    <g clip-path="url(#clip0_801_433)">
                    <path d="M12.9516 14.755C12.9516 14.755 15.3149 14.5796 15.3149 11.8082C15.3149 9.03675 13.3814 7.6842 10.9322 7.6842H2.87305V23.1717H10.9322C10.9322 23.1717 15.8521 23.3271 15.8521 18.6005C15.8521 18.6006 16.0666 14.755 12.9516 14.755V14.755ZM10.3522 10.4369H10.9322C10.9322 10.4369 12.0277 10.4369 12.0277 12.0483C12.0277 13.6596 11.3835 13.8932 10.6527 13.8932H6.42403V10.4369H10.3522V10.4369ZM10.7045 20.4191H6.42403V16.2802H10.9322C10.9322 16.2802 12.565 16.2588 12.565 18.4072C12.565 20.2187 11.3455 20.4054 10.7045 20.4191V20.4191ZM22.4136 11.6247C16.4576 11.6247 16.4628 17.5755 16.4628 17.5755C16.4628 17.5755 16.0542 23.4957 22.4136 23.4957C22.4136 23.4957 27.713 23.7985 27.713 19.3773H24.9876C24.9876 19.3773 25.0785 21.0422 22.5045 21.0422C22.5045 21.0422 19.7786 21.2249 19.7786 18.3478H27.8039C27.8039 18.3477 28.682 11.6247 22.4136 11.6247ZM19.7487 16.2802C19.7487 16.2802 20.0815 13.8931 22.4741 13.8931C24.8663 13.8931 24.8363 16.2802 24.8363 16.2802H19.7487ZM25.4712 10.5038H19.0814V8.59662H25.4712V10.5038Z" fill="white"/>
                    </g>
                    <defs>
                    <clipPath id="clip0_801_433">
                    <rect width="24.9776" height="15.8158" fill="white" transform="translate(2.87012 7.6842)"/>
                    </clipPath>
                    </defs>
                    </svg>