<svg width="30" height="31" viewBox="0 0 30 31" fill="none" xmlns="http://www.w3.org/2000/svg">
                    <g clip-path="url(#clip0_801_446)">
                    <path d="M10.471 25.859C12.4932 25.859 14.1344 24.2163 14.1344 22.1923V18.5256H10.471C8.44881 18.5256 6.80762 20.1683 6.80762 22.1923C6.80762 24.2163 8.44881 25.859 10.471 25.859Z" fill="white"/>
                    <path d="M6.80762 14.8589C6.80762 12.8349 8.44881 11.1923 10.471 11.1923H14.1344V18.5256H10.471C8.44881 18.5256 6.80762 16.8829 6.80762 14.8589Z" fill="white"/>
                    <path d="M6.80762 7.52556C6.80762 5.50156 8.44881 3.85889 10.471 3.85889H14.1344V11.1922H10.471C8.44881 11.1922 6.80762 9.54957 6.80762 7.52556Z" fill="white"/>
                    <path d="M14.1338 3.85889H17.7972C19.8193 3.85889 21.4605 5.50156 21.4605 7.52556C21.4605 9.54957 19.8193 11.1922 17.7972 11.1922H14.1338V3.85889Z" fill="white"/>
                    <path d="M21.4605 14.8589C21.4605 16.8829 19.8193 18.5256 17.7972 18.5256C15.775 18.5256 14.1338 16.8829 14.1338 14.8589C14.1338 12.8349 15.775 11.1923 17.7972 11.1923C19.8193 11.1923 21.4605 12.8349 21.4605 14.8589Z" fill="white"/>
                    </g>
                    <defs>
                    <clipPath id="clip0_801_446">
                    <rect width="14.6564" height="22.0001" fill="white" transform="translate(6.80566 3.85889)"/>
                    </clipPath>
                    </defs>
</svg> 