<svg width="30" height="31" viewBox="0 0 30 31" fill="none" xmlns="http://www.w3.org/2000/svg">
                <g clip-path="url(#clip0_801_453)">
                <path fill-rule="evenodd" clip-rule="evenodd" d="M19.8652 15.8641C19.8652 18.6461 17.6097 20.9016 14.8274 20.9016C12.045 20.9016 9.79011 18.6461 9.79011 15.8641C9.79011 13.082 12.0453 10.8265 14.8277 10.8265C17.61 10.8265 19.8649 13.082 19.8649 15.8641H19.8652ZM5.17379 11.3062C5.19485 11.2697 5.22515 11.2394 5.26163 11.2184C5.29812 11.1973 5.33951 11.1862 5.38164 11.1862C5.42378 11.1862 5.46517 11.1973 5.50165 11.2184C5.53814 11.2394 5.56844 11.2697 5.5895 11.3062L10.7311 20.2123C10.7522 20.2487 10.7633 20.2901 10.7633 20.3323C10.7633 20.3744 10.7522 20.4158 10.7311 20.4523C10.7101 20.4887 10.6798 20.519 10.6433 20.5401C10.6068 20.5612 10.5654 20.5723 10.5233 20.5723H0.240011C0.197881 20.5723 0.156493 20.5612 0.120007 20.5401C0.083521 20.519 0.0532224 20.4887 0.0321567 20.4523C0.011091 20.4158 4.84737e-07 20.3744 0 20.3323C-4.84705e-07 20.2901 0.011089 20.2487 0.0321539 20.2123L5.17379 11.3062ZM21.004 11.1265C20.7392 11.1265 20.5243 11.3414 20.5243 11.6065V20.1223C20.5243 20.3874 20.7392 20.6019 21.004 20.6019H29.52C29.7848 20.6019 29.9997 20.3874 29.9997 20.1223V11.6062C29.9997 11.3411 29.7848 11.1262 29.52 11.1262L21.004 11.1265Z" fill="white"/>
                </g>
                <defs>
                <clipPath id="clip0_801_453">
                <rect width="30" height="10.102" fill="white" transform="translate(0 10.8265)"/>
                </clipPath>
                </defs>
</svg>