<svg width="30" height="31" viewBox="0 0 30 31" fill="none" xmlns="http://www.w3.org/2000/svg">
                    <g clip-path="url(#clip0_801_439)">
                    <path d="M14.3261 6.68003C17.0097 6.68003 17.2972 6.68003 18.3515 6.77587C19.3099 6.77587 19.885 6.96755 20.1725 7.15924C20.6517 7.35093 20.9392 7.54261 21.3226 7.92598C21.706 8.30936 21.8977 8.59689 22.0894 9.0761C22.1852 9.45947 22.3769 9.93869 22.4727 10.8971C22.4727 11.9514 22.5686 12.2389 22.5686 14.9225C22.5686 17.6061 22.5686 17.8937 22.4727 18.9479C22.4727 19.9064 22.281 20.4814 22.0894 20.7689C21.8977 21.2482 21.706 21.5357 21.3226 21.9191C20.9392 22.3024 20.6517 22.4941 20.1725 22.6858C19.7891 22.7816 19.3099 22.9733 18.3515 23.0692C17.393 23.0692 17.0097 23.0692 14.3261 23.0692C11.6425 23.0692 11.3549 23.0692 10.3007 22.9733C9.34223 22.9733 8.76718 22.7816 8.47965 22.59C8.00043 22.3983 7.7129 22.2066 7.32953 21.8232C6.94616 21.4398 6.75447 21.1523 6.56279 20.6731C6.46694 20.2897 6.27526 19.8105 6.17942 18.8521C6.08357 17.7978 6.08357 17.5103 6.08357 14.8267C6.08357 12.1431 6.08357 11.8555 6.17942 10.8013C6.17942 9.84284 6.3711 9.26779 6.56279 8.98026C6.75447 8.50104 6.94616 8.21351 7.32953 7.83014C7.7129 7.44677 8.00043 7.25508 8.47965 7.0634C8.76718 6.96755 9.34223 6.77587 10.3007 6.68003C11.3549 6.68003 11.6425 6.68003 14.3261 6.68003ZM14.3261 4.85901C11.6425 4.85901 11.2591 4.85901 10.2048 4.95485C9.15055 4.95485 8.47965 5.14654 7.80875 5.33822C7.13784 5.62575 6.56279 6.00912 6.08357 6.58418C5.50851 7.0634 5.12514 7.63846 4.83761 8.30936C4.64593 8.98026 4.45424 9.65116 4.45424 10.7054C4.3584 11.7597 4.3584 12.1431 4.3584 14.8267C4.3584 17.5103 4.3584 17.8937 4.45424 18.9479C4.55008 20.0022 4.64593 20.7689 4.93346 21.344C5.22099 22.0149 5.50851 22.59 6.08357 23.0692C6.65863 23.6442 7.23369 23.9318 7.80875 24.2193C8.47965 24.5068 9.15055 24.6027 10.2048 24.6985C11.2591 24.7944 11.6425 24.7943 14.3261 24.7943C17.0097 24.7943 17.393 24.7944 18.4473 24.6985C19.5016 24.6027 20.2683 24.5068 20.8434 24.2193C21.5143 23.9318 22.0894 23.6442 22.5686 23.0692C23.1436 22.4941 23.4312 21.9191 23.7187 21.344C24.0062 20.6731 24.1021 20.0022 24.1979 18.9479C24.2937 17.8937 24.2937 17.5103 24.2937 14.8267C24.2937 12.1431 24.2937 11.7597 24.1979 10.7054C24.1021 9.65116 24.0062 8.88441 23.7187 8.30936C23.4312 7.63846 23.1436 7.0634 22.5686 6.58418C21.9935 6.00912 21.4185 5.7216 20.8434 5.43407C20.1725 5.14654 19.5016 5.05069 18.4473 4.95485C17.393 4.85901 17.1055 4.85901 14.3261 4.85901Z" fill="white"/>
                    <path d="M14.3269 9.74695C11.4516 9.74695 9.15137 12.0472 9.15137 14.9225C9.15137 17.7978 11.4516 20.098 14.3269 20.098C17.2022 20.098 19.5024 17.7978 19.5024 14.9225C19.5024 12.0472 17.2022 9.74695 14.3269 9.74695ZM14.3269 18.1811C12.5059 18.1811 10.9724 16.6476 10.9724 14.8266C11.0682 13.0056 12.5059 11.568 14.3269 11.568C16.1479 11.568 17.6814 13.1015 17.6814 14.9225C17.6814 16.7435 16.2437 18.1811 14.3269 18.1811Z" fill="white"/>
                    <path d="M20.9402 9.55529C20.9402 10.2262 20.3651 10.8012 19.6942 10.8012C19.0233 10.8012 18.4482 10.2262 18.4482 9.55529C18.4482 8.88438 19.0233 8.30933 19.6942 8.30933C20.3651 8.30933 20.9402 8.88438 20.9402 9.55529Z" fill="white"/>
                    </g>
                    <defs>
                    <clipPath id="clip0_801_439">
                    <rect width="20.0312" height="20.0312" fill="white" transform="translate(4.35938 4.85889)"/>
                    </clipPath>
                    </defs>
                    </svg>