<svg width="30" height="31" viewBox="0 0 30 31" fill="none" xmlns="http://www.w3.org/2000/svg">
                    <path d="M9.11227 23.4995V10.3485H4.74105V23.4995H9.11272H9.11227ZM6.92757 8.55323C8.45159 8.55323 9.40039 7.54338 9.40039 6.28135C9.37186 4.99057 8.45159 4.00891 6.95656 4.00891C5.4605 4.00891 4.4834 4.99057 4.4834 6.28124C4.4834 7.54326 5.43186 8.55311 6.89893 8.55311H6.92723L6.92757 8.55323ZM11.5318 23.4995H15.9027V16.1562C15.9027 15.7637 15.9312 15.3701 16.0467 15.0897C16.3625 14.3041 17.0817 13.4909 18.2896 13.4909C19.8709 13.4909 20.5038 14.6968 20.5038 16.4648V23.4995H24.8746V15.9591C24.8746 11.9198 22.7184 10.0402 19.8426 10.0402C17.4848 10.0402 16.4492 11.358 15.8739 12.2555H15.903V10.3489H11.532C11.5891 11.5827 11.5317 23.5 11.5317 23.5L11.5318 23.4995Z" fill="white"/>
                    </svg>