<svg width="30" height="31" viewBox="0 0 30 31" fill="none" xmlns="http://www.w3.org/2000/svg">
                    <path d="M16.9384 15.3125C16.9384 10.6074 13.1367 6.80563 8.46921 6.80563C3.80174 6.80563 0 10.5697 0 15.3125C0 20.0552 3.80174 23.8193 8.46921 23.8193C13.1367 23.8193 16.9384 20.0176 16.9384 15.3125Z" fill="white"/>
                    <path d="M26.2363 15.3124C26.2363 10.8708 24.3542 7.29492 22.0205 7.29492C19.6867 7.29492 17.8047 10.8708 17.8047 15.3124C17.8047 19.7541 19.6867 23.33 22.0205 23.33C24.3166 23.33 26.2363 19.7164 26.2363 15.3124Z" fill="white"/>
                    <path d="M29.9996 15.3124C29.9996 11.3601 29.322 8.12299 28.4939 8.12299C27.6658 8.12299 26.9883 11.3601 26.9883 15.3124C26.9883 19.2647 27.6658 22.5018 28.4939 22.5018C29.3597 22.5018 29.9996 19.2647 29.9996 15.3124Z" fill="white"/>
                    </svg>